<?xml version="1.0" encoding="utf-8"?>
<!-- Svg Vector Icons : http://www.onlinewebfonts.com/icon -->
<!DOCTYPE svg PUBLIC "-//W3C//DTD SVG 1.1//EN" "http://www.w3.org/Graphics/SVG/1.1/DTD/svg11.dtd">
<svg version="1.1" xmlns="http://www.w3.org/2000/svg" xmlns:xlink="http://www.w3.org/1999/xlink" x="0px" y="0px" viewBox="0 0 256 256" enable-background="new 0 0 256 256" xml:space="preserve">
<metadata> Svg Vector Icons : http://www.onlinewebfonts.com/icon </metadata>
<g><g><g><path fill="#000000" d="M14.3,10.6c-1.9,0.8-3.8,3.2-4.2,5C10,16.4,10,67.6,10,129.3l0.1,112.2l1,1.2c0.5,0.7,1.5,1.7,2.2,2.2l1.2,1h113.5h113.5l1.2-1c0.7-0.5,1.7-1.5,2.2-2.2l1-1.2V128.1V14.6l-1-1.2c-0.5-0.7-1.5-1.7-2.2-2.2l-1.2-1L128.6,10C35.4,10,15.5,10,14.3,10.6z M46.8,35.8v11.1H35.8H24.7V35.8V24.7h11.1h11.1V35.8z M83.8,35.8v11.1H72.7H61.6V35.8V24.7h11.1h11.1V35.8z M120.7,35.8v11.1h-11.1H98.5V35.8V24.7h11.1h11.1V35.8z M157.6,35.8v11.1h-11.1h-11.1V35.8V24.7h11.1h11.1V35.8z M194.5,35.8v11.1h-11.1h-11.1V35.8V24.7h11.1h11.1V35.8z M231.5,35.8v11.1h-11.1h-11.1V35.8V24.7h11.1h11.1V35.8z M138,107.4c18.6,11.1,33.7,20.4,33.8,20.5c0,0.2-16.4,10.2-36.6,22.3l-36.7,22v-44.3V83.8l2.9,1.7C103,86.4,119.5,96.3,138,107.4z M46.8,220.4v11.1H35.8H24.7v-11.1v-11.1h11.1h11.1V220.4z M83.8,220.4v11.1H72.7H61.6v-11.1v-11.1h11.1h11.1V220.4z M120.7,220.4v11.1h-11.1H98.5v-11.1v-11.1h11.1h11.1V220.4z M157.6,220.4v11.1h-11.1h-11.1v-11.1v-11.1h11.1h11.1V220.4z M194.5,220.4v11.1h-11.1h-11.1v-11.1v-11.1h11.1h11.1V220.4z M231.5,220.4v11.1h-11.1h-11.1v-11.1v-11.1h11.1h11.1V220.4z"/></g></g></g>
</svg>